<?xml version="1.0" encoding="UTF-8" standalone="no"?>
<!-- center: x = 53, y = 82.25 -->
<svg xmlns="http://www.w3.org/2000/svg" xmlns:xlink="http://www.w3.org/1999/xlink" class="card" face="1B" viewBox="-106 -164.5 212 329">
    <defs>
        <symbol id="SS3" viewBox="-600 -600 1200 1200" preserveAspectRatio="xMinYMid">
            <path d="M0 -500C100 -250 355 -100 355 185A150 150 0 0 1 55 185A10 10 0 0 0 35 185C35 385 85 400 130 500L-130 500C-85 400 -35 385 -35 185A10 10 0 0 0 -55 185A150 150 0 0 1 -355 185C-355 -100 -100 -250 0 -500Z" fill="white"></path>
        </symbol>
        <symbol id="SH3" viewBox="-600 -600 1200 1200" preserveAspectRatio="xMinYMid">
            <path d="M0 -300C0 -400 100 -500 200 -500C300 -500 400 -400 400 -250C400 0 0 400 0 500C0 400 -400 0 -400 -250C-400 -400 -300 -500 -200 -500C-100 -500 0 -400 -0 -300Z" fill="white"></path>
        </symbol>
        <symbol id="SD3" viewBox="-600 -600 1200 1200" preserveAspectRatio="xMinYMid">
            <path d="M-400 0C-350 0 0 -450 0 -500C0 -450 350 0 400 0C350 0 0 450 0 500C0 450 -350 0 -400 0Z" fill="white"></path>
        </symbol>
        <symbol id="SC3" viewBox="-600 -600 1200 1200" preserveAspectRatio="xMinYMid">
            <path d="M30 150C35 385 85 400 130 500L-130 500C-85 400 -35 385 -30 150A10 10 0 0 0 -50 150A210 210 0 1 1 -124 -51A10 10 0 0 0 -110 -65A230 230 0 1 1 110 -65A10 10 0 0 0 124 -51A210 210 0 1 1 50 150A10 10 0 0 0 30 150Z" fill="white"></path>
        </symbol>
    </defs>
    <rect width="211" height="328" x="-105.5" y="-164" rx="12" ry="12" fill="white" stroke="black"></rect>
    <rect width="171" height="288" x="-85.5" y="-144" fill="#008021" stroke="#008021"></rect>
    <use xlink:href="#SS3" height="41.827" width="41.827" x="-37.827" y="-41.827"></use>
    <use xlink:href="#SH3" height="41.827" width="41.827" x="-4" y="-41.827"></use>
    <circle r="70" cx="0" cy="0" stroke="white" stroke-width="2" fill="none"></circle>
    <g transform="rotate(180)" transform-origin="0 20.9135">
        <use xlink:href="#SC3" height="41.827" width="41.827" x="-37.827" y="0"></use>
        <use xlink:href="#SD3" height="41.827" width="41.827" x="-4" y="0"></use>
    </g>
</svg>